<mxfile host="65bd71144e">
    <diagram id="FywJMqPAA-i86MLFmjCV" name="Page-1">
        <mxGraphModel dx="1426" dy="498" grid="0" gridSize="10" guides="1" tooltips="1" connect="1" arrows="1" fold="1" page="0" pageScale="1" pageWidth="827" pageHeight="1169" math="0" shadow="0">
            <root>
                <mxCell id="0"/>
                <mxCell id="1" parent="0"/>
                <mxCell id="2" value="" style="rounded=0;whiteSpace=wrap;html=1;" parent="1" vertex="1">
                    <mxGeometry x="-57" y="107" width="573" height="180" as="geometry"/>
                </mxCell>
                <mxCell id="3" value="Development Flow" style="text;html=1;strokeColor=none;fillColor=none;align=center;verticalAlign=middle;whiteSpace=wrap;rounded=0;" parent="1" vertex="1">
                    <mxGeometry x="395" y="84" width="138" height="30" as="geometry"/>
                </mxCell>
                <mxCell id="7" style="edgeStyle=none;html=1;exitX=1;exitY=0.5;exitDx=0;exitDy=0;entryX=0;entryY=0.5;entryDx=0;entryDy=0;" parent="1" source="4" target="5" edge="1">
                    <mxGeometry relative="1" as="geometry"/>
                </mxCell>
                <mxCell id="4" value="REACT APP" style="rounded=0;whiteSpace=wrap;html=1;" parent="1" vertex="1">
                    <mxGeometry x="-12" y="167" width="120" height="60" as="geometry"/>
                </mxCell>
                <mxCell id="8" style="edgeStyle=none;html=1;exitX=1;exitY=0.5;exitDx=0;exitDy=0;entryX=0;entryY=0.5;entryDx=0;entryDy=0;" parent="1" source="5" target="6" edge="1">
                    <mxGeometry relative="1" as="geometry"/>
                </mxCell>
                <mxCell id="5" value="EVERY MASTER PULL REQUEST OR COMMIT IS DEPLOYED" style="rounded=0;whiteSpace=wrap;html=1;" parent="1" vertex="1">
                    <mxGeometry x="163" y="167" width="120" height="60" as="geometry"/>
                </mxCell>
                <mxCell id="6" value="HEROKU" style="rounded=0;whiteSpace=wrap;html=1;" parent="1" vertex="1">
                    <mxGeometry x="338" y="167" width="120" height="60" as="geometry"/>
                </mxCell>
            </root>
        </mxGraphModel>
    </diagram>
    <diagram id="0s_zgq1X8OVbQ8GFLlZ8" name="details">
        <mxGraphModel dx="1426" dy="498" grid="0" gridSize="10" guides="1" tooltips="1" connect="1" arrows="1" fold="1" page="0" pageScale="1" pageWidth="827" pageHeight="1169" math="0" shadow="0">
            <root>
                <mxCell id="NoSM0CEVoWnQ4uh93vwL-0"/>
                <mxCell id="NoSM0CEVoWnQ4uh93vwL-1" parent="NoSM0CEVoWnQ4uh93vwL-0"/>
                <mxCell id="NoSM0CEVoWnQ4uh93vwL-5" value="" style="rounded=0;whiteSpace=wrap;html=1;" vertex="1" parent="NoSM0CEVoWnQ4uh93vwL-1">
                    <mxGeometry x="-22" y="157" width="427" height="120" as="geometry"/>
                </mxCell>
                <mxCell id="NoSM0CEVoWnQ4uh93vwL-11" style="edgeStyle=none;html=1;exitX=0.5;exitY=0;exitDx=0;exitDy=0;" edge="1" parent="NoSM0CEVoWnQ4uh93vwL-1" source="NoSM0CEVoWnQ4uh93vwL-2" target="NoSM0CEVoWnQ4uh93vwL-10">
                    <mxGeometry relative="1" as="geometry"/>
                </mxCell>
                <mxCell id="NoSM0CEVoWnQ4uh93vwL-2" value="API" style="rounded=0;whiteSpace=wrap;html=1;" vertex="1" parent="NoSM0CEVoWnQ4uh93vwL-1">
                    <mxGeometry x="405" y="377" width="178" height="60" as="geometry"/>
                </mxCell>
                <mxCell id="NoSM0CEVoWnQ4uh93vwL-8" style="edgeStyle=none;html=1;exitX=0.5;exitY=1;exitDx=0;exitDy=0;entryX=0.25;entryY=0;entryDx=0;entryDy=0;" edge="1" parent="NoSM0CEVoWnQ4uh93vwL-1" source="NoSM0CEVoWnQ4uh93vwL-3" target="NoSM0CEVoWnQ4uh93vwL-2">
                    <mxGeometry relative="1" as="geometry"/>
                </mxCell>
                <mxCell id="NoSM0CEVoWnQ4uh93vwL-3" value="Login Feature" style="rounded=0;whiteSpace=wrap;html=1;" vertex="1" parent="NoSM0CEVoWnQ4uh93vwL-1">
                    <mxGeometry x="209" y="187" width="120" height="60" as="geometry"/>
                </mxCell>
                <mxCell id="NoSM0CEVoWnQ4uh93vwL-7" style="edgeStyle=none;html=1;exitX=0.5;exitY=1;exitDx=0;exitDy=0;entryX=0;entryY=0;entryDx=0;entryDy=0;" edge="1" parent="NoSM0CEVoWnQ4uh93vwL-1" source="NoSM0CEVoWnQ4uh93vwL-4" target="NoSM0CEVoWnQ4uh93vwL-2">
                    <mxGeometry relative="1" as="geometry"/>
                </mxCell>
                <mxCell id="NoSM0CEVoWnQ4uh93vwL-4" value="Register Feature" style="rounded=0;whiteSpace=wrap;html=1;" vertex="1" parent="NoSM0CEVoWnQ4uh93vwL-1">
                    <mxGeometry x="58" y="187" width="120" height="60" as="geometry"/>
                </mxCell>
                <mxCell id="NoSM0CEVoWnQ4uh93vwL-6" value="User Layer" style="text;html=1;strokeColor=none;fillColor=none;align=center;verticalAlign=middle;whiteSpace=wrap;rounded=0;" vertex="1" parent="NoSM0CEVoWnQ4uh93vwL-1">
                    <mxGeometry x="329" y="131" width="92" height="30" as="geometry"/>
                </mxCell>
                <mxCell id="NoSM0CEVoWnQ4uh93vwL-16" style="edgeStyle=none;html=1;exitX=1;exitY=0.25;exitDx=0;exitDy=0;entryX=0;entryY=0.5;entryDx=0;entryDy=0;" edge="1" parent="NoSM0CEVoWnQ4uh93vwL-1" source="NoSM0CEVoWnQ4uh93vwL-10" target="NoSM0CEVoWnQ4uh93vwL-12">
                    <mxGeometry relative="1" as="geometry"/>
                </mxCell>
                <mxCell id="NoSM0CEVoWnQ4uh93vwL-22" style="edgeStyle=none;html=1;exitX=1;exitY=0.75;exitDx=0;exitDy=0;entryX=0;entryY=0.5;entryDx=0;entryDy=0;" edge="1" parent="NoSM0CEVoWnQ4uh93vwL-1" source="NoSM0CEVoWnQ4uh93vwL-10" target="NoSM0CEVoWnQ4uh93vwL-17">
                    <mxGeometry relative="1" as="geometry"/>
                </mxCell>
                <mxCell id="NoSM0CEVoWnQ4uh93vwL-10" value="Valid Token ?" style="text;html=1;strokeColor=none;fillColor=none;align=center;verticalAlign=middle;whiteSpace=wrap;rounded=0;" vertex="1" parent="NoSM0CEVoWnQ4uh93vwL-1">
                    <mxGeometry x="448" y="202" width="92" height="30" as="geometry"/>
                </mxCell>
                <mxCell id="NoSM0CEVoWnQ4uh93vwL-12" value="" style="rounded=0;whiteSpace=wrap;html=1;" vertex="1" parent="NoSM0CEVoWnQ4uh93vwL-1">
                    <mxGeometry x="583" y="61" width="427" height="120" as="geometry"/>
                </mxCell>
                <mxCell id="NoSM0CEVoWnQ4uh93vwL-14" value="Vehicle Public Layer" style="text;html=1;strokeColor=none;fillColor=none;align=center;verticalAlign=middle;whiteSpace=wrap;rounded=0;" vertex="1" parent="NoSM0CEVoWnQ4uh93vwL-1">
                    <mxGeometry x="889" y="37" width="131" height="30" as="geometry"/>
                </mxCell>
                <mxCell id="NoSM0CEVoWnQ4uh93vwL-15" value="Vehicle Catalog" style="rounded=0;whiteSpace=wrap;html=1;" vertex="1" parent="NoSM0CEVoWnQ4uh93vwL-1">
                    <mxGeometry x="747" y="91" width="120" height="60" as="geometry"/>
                </mxCell>
                <mxCell id="NoSM0CEVoWnQ4uh93vwL-17" value="" style="rounded=0;whiteSpace=wrap;html=1;" vertex="1" parent="NoSM0CEVoWnQ4uh93vwL-1">
                    <mxGeometry x="583" y="232" width="427" height="120" as="geometry"/>
                </mxCell>
                <mxCell id="NoSM0CEVoWnQ4uh93vwL-18" value="Vehicle Private Layer" style="text;html=1;strokeColor=none;fillColor=none;align=center;verticalAlign=middle;whiteSpace=wrap;rounded=0;" vertex="1" parent="NoSM0CEVoWnQ4uh93vwL-1">
                    <mxGeometry x="889" y="206" width="131" height="30" as="geometry"/>
                </mxCell>
                <mxCell id="NoSM0CEVoWnQ4uh93vwL-19" value="Create Vehicle" style="rounded=0;whiteSpace=wrap;html=1;" vertex="1" parent="NoSM0CEVoWnQ4uh93vwL-1">
                    <mxGeometry x="605" y="266" width="120" height="60" as="geometry"/>
                </mxCell>
                <mxCell id="NoSM0CEVoWnQ4uh93vwL-20" value="Update Vehicle" style="rounded=0;whiteSpace=wrap;html=1;" vertex="1" parent="NoSM0CEVoWnQ4uh93vwL-1">
                    <mxGeometry x="736.5" y="266" width="120" height="60" as="geometry"/>
                </mxCell>
                <mxCell id="NoSM0CEVoWnQ4uh93vwL-21" value="Delete Vehicle" style="rounded=0;whiteSpace=wrap;html=1;" vertex="1" parent="NoSM0CEVoWnQ4uh93vwL-1">
                    <mxGeometry x="867" y="266" width="120" height="60" as="geometry"/>
                </mxCell>
                <mxCell id="NoSM0CEVoWnQ4uh93vwL-23" value="Any User" style="text;html=1;strokeColor=none;fillColor=none;align=center;verticalAlign=middle;whiteSpace=wrap;rounded=0;" vertex="1" parent="NoSM0CEVoWnQ4uh93vwL-1">
                    <mxGeometry x="576" y="151" width="92" height="30" as="geometry"/>
                </mxCell>
                <mxCell id="NoSM0CEVoWnQ4uh93vwL-24" value="Admin Only" style="text;html=1;strokeColor=none;fillColor=none;align=center;verticalAlign=middle;whiteSpace=wrap;rounded=0;" vertex="1" parent="NoSM0CEVoWnQ4uh93vwL-1">
                    <mxGeometry x="576" y="229" width="92" height="30" as="geometry"/>
                </mxCell>
            </root>
        </mxGraphModel>
    </diagram>
</mxfile>